<mxfile host="app.diagrams.net" agent="Mozilla/5.0 (Windows NT 10.0; Win64; x64) AppleWebKit/537.36 (KHTML, like Gecko) Chrome/131.0.0.0 Safari/537.36 Edg/131.0.0.0" version="25.0.3">
  <diagram name="Page-1" id="W7Ava7mY3ilEy3Gwv3Um">
    <mxGraphModel dx="1426" dy="789" grid="1" gridSize="10" guides="1" tooltips="1" connect="1" arrows="1" fold="1" page="1" pageScale="1" pageWidth="827" pageHeight="1169" math="0" shadow="0">
      <root>
        <mxCell id="0" />
        <mxCell id="1" parent="0" />
        <mxCell id="rv_dXC7rwFdCXqUK-G93-1" value="Flight" style="swimlane;fontStyle=1;align=center;verticalAlign=top;childLayout=stackLayout;horizontal=1;startSize=26;horizontalStack=0;resizeParent=1;resizeParentMax=0;resizeLast=0;collapsible=1;marginBottom=0;fillColor=#dae8fc;strokeColor=#6c8ebf;" vertex="1" parent="1">
          <mxGeometry x="280" y="240" width="160" height="290" as="geometry">
            <mxRectangle x="300" y="310" width="100" height="30" as="alternateBounds" />
          </mxGeometry>
        </mxCell>
        <mxCell id="rv_dXC7rwFdCXqUK-G93-2" value="- flightId: int&#xa;- flightName: String&#xa;- flightType: String&#xa;- seats: int&#xa;- rank: Rank&#xa;- airport: String&#xa;- target: String&#xa;- goTime: String&#xa;- arriveTime: String&#xa;- passengerList: List&#xa;- availability: boolean&#xa;- addons: Addon" style="text;strokeColor=none;fillColor=none;align=left;verticalAlign=top;spacingLeft=4;spacingRight=4;overflow=hidden;rotatable=0;points=[[0,0.5],[1,0.5]];portConstraint=eastwest;" vertex="1" parent="rv_dXC7rwFdCXqUK-G93-1">
          <mxGeometry y="26" width="160" height="174" as="geometry" />
        </mxCell>
        <mxCell id="rv_dXC7rwFdCXqUK-G93-3" value="" style="line;strokeWidth=1;fillColor=none;align=left;verticalAlign=middle;spacingTop=-1;spacingLeft=3;spacingRight=3;rotatable=0;labelPosition=right;points=[];portConstraint=eastwest;strokeColor=inherit;" vertex="1" parent="rv_dXC7rwFdCXqUK-G93-1">
          <mxGeometry y="200" width="160" height="20" as="geometry" />
        </mxCell>
        <mxCell id="rv_dXC7rwFdCXqUK-G93-4" value="+ getters()&#xa;+ boolean isAvailability()&#xa;+ void addPassenger()&#xa;+ void removePassenger()" style="text;strokeColor=none;fillColor=none;align=left;verticalAlign=top;spacingLeft=4;spacingRight=4;overflow=hidden;rotatable=0;points=[[0,0.5],[1,0.5]];portConstraint=eastwest;" vertex="1" parent="rv_dXC7rwFdCXqUK-G93-1">
          <mxGeometry y="220" width="160" height="70" as="geometry" />
        </mxCell>
        <mxCell id="rv_dXC7rwFdCXqUK-G93-5" value="" style="endArrow=diamondThin;endFill=1;endSize=24;html=1;rounded=0;entryX=0;entryY=0.5;entryDx=0;entryDy=0;exitX=1;exitY=0.5;exitDx=0;exitDy=0;" edge="1" parent="1" target="rv_dXC7rwFdCXqUK-G93-2" source="rv_dXC7rwFdCXqUK-G93-11">
          <mxGeometry width="160" relative="1" as="geometry">
            <mxPoint x="169" y="294.0967741935483" as="sourcePoint" />
            <mxPoint x="414" y="260" as="targetPoint" />
          </mxGeometry>
        </mxCell>
        <mxCell id="rv_dXC7rwFdCXqUK-G93-6" value="1" style="text;html=1;align=center;verticalAlign=middle;resizable=0;points=[];autosize=1;strokeColor=none;fillColor=none;" vertex="1" parent="1">
          <mxGeometry x="240" y="490" width="30" height="30" as="geometry" />
        </mxCell>
        <mxCell id="rv_dXC7rwFdCXqUK-G93-7" value="AirlineCompany" style="swimlane;fontStyle=1;align=center;verticalAlign=top;childLayout=stackLayout;horizontal=1;startSize=26;horizontalStack=0;resizeParent=1;resizeParentMax=0;resizeLast=0;collapsible=1;marginBottom=0;fillColor=#dae8fc;strokeColor=#6c8ebf;" vertex="1" parent="1">
          <mxGeometry x="280" y="600" width="160" height="190" as="geometry" />
        </mxCell>
        <mxCell id="rv_dXC7rwFdCXqUK-G93-8" value="- companyName: String&#xa;- flightList: List" style="text;strokeColor=none;fillColor=none;align=left;verticalAlign=top;spacingLeft=4;spacingRight=4;overflow=hidden;rotatable=0;points=[[0,0.5],[1,0.5]];portConstraint=eastwest;" vertex="1" parent="rv_dXC7rwFdCXqUK-G93-7">
          <mxGeometry y="26" width="160" height="44" as="geometry" />
        </mxCell>
        <mxCell id="rv_dXC7rwFdCXqUK-G93-9" value="" style="line;strokeWidth=1;fillColor=none;align=left;verticalAlign=middle;spacingTop=-1;spacingLeft=3;spacingRight=3;rotatable=0;labelPosition=right;points=[];portConstraint=eastwest;strokeColor=inherit;" vertex="1" parent="rv_dXC7rwFdCXqUK-G93-7">
          <mxGeometry y="70" width="160" height="8" as="geometry" />
        </mxCell>
        <mxCell id="rv_dXC7rwFdCXqUK-G93-10" value="+ getters()&#xa;+ addFlight(): void&#xa;+ updateFlight(): void&#xa;+ cancelFlight(): void&#xa;+ showUpdatinng(): String&#xa;+ alarmPassenger(): void" style="text;strokeColor=none;fillColor=none;align=left;verticalAlign=top;spacingLeft=4;spacingRight=4;overflow=hidden;rotatable=0;points=[[0,0.5],[1,0.5]];portConstraint=eastwest;" vertex="1" parent="rv_dXC7rwFdCXqUK-G93-7">
          <mxGeometry y="78" width="160" height="112" as="geometry" />
        </mxCell>
        <mxCell id="rv_dXC7rwFdCXqUK-G93-11" value="&amp;lt;&amp;lt;enum&amp;gt;&amp;gt;&lt;br&gt;Rank" style="html=1;fillColor=#f5f5f5;fontColor=#333333;strokeColor=#666666;" vertex="1" parent="1">
          <mxGeometry x="110" y="328" width="110" height="50" as="geometry" />
        </mxCell>
        <mxCell id="rv_dXC7rwFdCXqUK-G93-13" value="addFlight(Flight)" style="text;html=1;align=center;verticalAlign=middle;resizable=0;points=[];autosize=1;strokeColor=none;fillColor=none;" vertex="1" parent="1">
          <mxGeometry x="356" y="550" width="110" height="30" as="geometry" />
        </mxCell>
        <mxCell id="rv_dXC7rwFdCXqUK-G93-14" value="&lt;font style=&quot;font-size: 18px;&quot;&gt;*&lt;/font&gt;" style="text;html=1;align=center;verticalAlign=middle;resizable=0;points=[];autosize=1;strokeColor=none;fillColor=none;" vertex="1" parent="1">
          <mxGeometry x="326" y="530" width="30" height="40" as="geometry" />
        </mxCell>
        <mxCell id="rv_dXC7rwFdCXqUK-G93-15" value="1" style="text;html=1;align=center;verticalAlign=middle;resizable=0;points=[];autosize=1;strokeColor=none;fillColor=none;" vertex="1" parent="1">
          <mxGeometry x="326" y="570" width="30" height="30" as="geometry" />
        </mxCell>
        <mxCell id="rv_dXC7rwFdCXqUK-G93-16" value="passenger" style="swimlane;fontStyle=1;align=center;verticalAlign=top;childLayout=stackLayout;horizontal=1;startSize=26;horizontalStack=0;resizeParent=1;resizeParentMax=0;resizeLast=0;collapsible=1;marginBottom=0;fontSize=12;fillColor=#dae8fc;strokeColor=#6c8ebf;" vertex="1" parent="1">
          <mxGeometry x="560" y="400" width="200" height="170" as="geometry" />
        </mxCell>
        <mxCell id="rv_dXC7rwFdCXqUK-G93-17" value="- name: String&#xa;- id: int&#xa;- reservation: Flight" style="text;strokeColor=none;fillColor=none;align=left;verticalAlign=top;spacingLeft=4;spacingRight=4;overflow=hidden;rotatable=0;points=[[0,0.5],[1,0.5]];portConstraint=eastwest;fontSize=12;" vertex="1" parent="rv_dXC7rwFdCXqUK-G93-16">
          <mxGeometry y="26" width="200" height="64" as="geometry" />
        </mxCell>
        <mxCell id="rv_dXC7rwFdCXqUK-G93-18" value="" style="line;strokeWidth=1;fillColor=none;align=left;verticalAlign=middle;spacingTop=-1;spacingLeft=3;spacingRight=3;rotatable=0;labelPosition=right;points=[];portConstraint=eastwest;strokeColor=inherit;fontSize=18;" vertex="1" parent="rv_dXC7rwFdCXqUK-G93-16">
          <mxGeometry y="90" width="200" height="8" as="geometry" />
        </mxCell>
        <mxCell id="rv_dXC7rwFdCXqUK-G93-19" value="+ getters()&#xa;+ order(): void&#xa;+ changeReservation(): void&#xa;+ subscribe(): void" style="text;strokeColor=none;fillColor=none;align=left;verticalAlign=top;spacingLeft=4;spacingRight=4;overflow=hidden;rotatable=0;points=[[0,0.5],[1,0.5]];portConstraint=eastwest;fontSize=12;" vertex="1" parent="rv_dXC7rwFdCXqUK-G93-16">
          <mxGeometry y="98" width="200" height="72" as="geometry" />
        </mxCell>
        <mxCell id="rv_dXC7rwFdCXqUK-G93-20" value="&lt;span style=&quot;background-color: rgb(251, 251, 251);&quot;&gt;notification&lt;/span&gt;" style="endArrow=open;endSize=12;dashed=1;html=1;rounded=0;fontSize=12;exitX=0.5;exitY=0;exitDx=0;exitDy=0;entryX=0.5;entryY=1;entryDx=0;entryDy=0;entryPerimeter=0;" edge="1" parent="1" source="rv_dXC7rwFdCXqUK-G93-16" target="rv_dXC7rwFdCXqUK-G93-31">
          <mxGeometry width="160" relative="1" as="geometry">
            <mxPoint x="560" y="292.58" as="sourcePoint" />
            <mxPoint x="470" y="310" as="targetPoint" />
          </mxGeometry>
        </mxCell>
        <mxCell id="rv_dXC7rwFdCXqUK-G93-21" value="&amp;lt;&amp;lt;enum&amp;gt;&amp;gt;&lt;br&gt;Addon" style="html=1;fillColor=#f5f5f5;fontColor=#333333;strokeColor=#666666;" vertex="1" parent="1">
          <mxGeometry x="10" y="470" width="110" height="50" as="geometry" />
        </mxCell>
        <mxCell id="rv_dXC7rwFdCXqUK-G93-22" value="" style="endArrow=diamondThin;endFill=1;endSize=24;html=1;rounded=0;entryX=0;entryY=0.5;entryDx=0;entryDy=0;exitX=1;exitY=0.5;exitDx=0;exitDy=0;" edge="1" parent="1" source="rv_dXC7rwFdCXqUK-G93-21" target="rv_dXC7rwFdCXqUK-G93-4">
          <mxGeometry width="160" relative="1" as="geometry">
            <mxPoint x="179" y="304.0967741935483" as="sourcePoint" />
            <mxPoint x="264" y="313" as="targetPoint" />
          </mxGeometry>
        </mxCell>
        <mxCell id="rv_dXC7rwFdCXqUK-G93-23" value="1" style="text;html=1;align=center;verticalAlign=middle;resizable=0;points=[];autosize=1;strokeColor=none;fillColor=none;" vertex="1" parent="1">
          <mxGeometry x="240" y="348" width="30" height="30" as="geometry" />
        </mxCell>
        <mxCell id="rv_dXC7rwFdCXqUK-G93-28" value="&lt;span style=&quot;font-weight: 400;&quot;&gt;NotificationManager&lt;/span&gt;" style="swimlane;fontStyle=1;align=center;verticalAlign=top;childLayout=stackLayout;horizontal=1;startSize=26;horizontalStack=0;resizeParent=1;resizeParentMax=0;resizeLast=0;collapsible=1;marginBottom=0;whiteSpace=wrap;html=1;fillColor=#ffe6cc;strokeColor=#d79b00;" vertex="1" parent="1">
          <mxGeometry x="560" y="220" width="200" height="120" as="geometry" />
        </mxCell>
        <mxCell id="rv_dXC7rwFdCXqUK-G93-29" value="-&amp;nbsp; subscribers:List&amp;lt;Passenger&amp;gt;" style="text;strokeColor=none;fillColor=none;align=left;verticalAlign=top;spacingLeft=4;spacingRight=4;overflow=hidden;rotatable=0;points=[[0,0.5],[1,0.5]];portConstraint=eastwest;whiteSpace=wrap;html=1;" vertex="1" parent="rv_dXC7rwFdCXqUK-G93-28">
          <mxGeometry y="26" width="200" height="26" as="geometry" />
        </mxCell>
        <mxCell id="rv_dXC7rwFdCXqUK-G93-30" value="" style="line;strokeWidth=1;fillColor=none;align=left;verticalAlign=middle;spacingTop=-1;spacingLeft=3;spacingRight=3;rotatable=0;labelPosition=right;points=[];portConstraint=eastwest;strokeColor=inherit;" vertex="1" parent="rv_dXC7rwFdCXqUK-G93-28">
          <mxGeometry y="52" width="200" height="8" as="geometry" />
        </mxCell>
        <mxCell id="rv_dXC7rwFdCXqUK-G93-31" value="+ addSubscriber(): Passenger&lt;div&gt;+&amp;nbsp;removeSubscriber():&amp;nbsp;&lt;span style=&quot;background-color: initial;&quot;&gt;Passenger&lt;/span&gt;&lt;/div&gt;&lt;div&gt;&lt;span style=&quot;background-color: initial;&quot;&gt;+&amp;nbsp;&lt;/span&gt;&lt;span style=&quot;background-color: initial;&quot;&gt;notifySubscribers():&amp;nbsp;&lt;/span&gt;&lt;span style=&quot;background-color: initial;&quot;&gt;String&lt;/span&gt;&lt;/div&gt;" style="text;strokeColor=none;fillColor=none;align=left;verticalAlign=top;spacingLeft=4;spacingRight=4;overflow=hidden;rotatable=0;points=[[0,0.5],[1,0.5]];portConstraint=eastwest;whiteSpace=wrap;html=1;" vertex="1" parent="rv_dXC7rwFdCXqUK-G93-28">
          <mxGeometry y="60" width="200" height="60" as="geometry" />
        </mxCell>
        <mxCell id="rv_dXC7rwFdCXqUK-G93-32" value="" style="endArrow=diamondThin;endFill=1;endSize=24;html=1;rounded=0;" edge="1" parent="1" source="rv_dXC7rwFdCXqUK-G93-28" target="rv_dXC7rwFdCXqUK-G93-1">
          <mxGeometry width="160" relative="1" as="geometry">
            <mxPoint x="330" y="410" as="sourcePoint" />
            <mxPoint x="490" y="410" as="targetPoint" />
          </mxGeometry>
        </mxCell>
        <mxCell id="rv_dXC7rwFdCXqUK-G93-33" value="notification" style="text;html=1;align=center;verticalAlign=middle;resizable=0;points=[];autosize=1;strokeColor=none;fillColor=none;" vertex="1" parent="1">
          <mxGeometry x="450" y="298" width="80" height="30" as="geometry" />
        </mxCell>
        <mxCell id="rv_dXC7rwFdCXqUK-G93-34" value="FlightFactory" style="swimlane;fontStyle=1;align=center;verticalAlign=top;childLayout=stackLayout;horizontal=1;startSize=26;horizontalStack=0;resizeParent=1;resizeParentMax=0;resizeLast=0;collapsible=1;marginBottom=0;fontSize=12;fillColor=#fff2cc;strokeColor=#d6b656;" vertex="1" parent="1">
          <mxGeometry x="180" y="80" width="360" height="80" as="geometry" />
        </mxCell>
        <mxCell id="rv_dXC7rwFdCXqUK-G93-37" value="+ createFlight(String flightNumber, String destination): Flight" style="text;strokeColor=none;fillColor=none;align=left;verticalAlign=top;spacingLeft=4;spacingRight=4;overflow=hidden;rotatable=0;points=[[0,0.5],[1,0.5]];portConstraint=eastwest;fontSize=12;" vertex="1" parent="rv_dXC7rwFdCXqUK-G93-34">
          <mxGeometry y="26" width="360" height="54" as="geometry" />
        </mxCell>
        <mxCell id="rv_dXC7rwFdCXqUK-G93-38" value="" style="endArrow=block;dashed=1;endFill=0;endSize=12;html=1;rounded=0;exitX=0.5;exitY=1;exitDx=0;exitDy=0;entryX=0.5;entryY=0;entryDx=0;entryDy=0;exitPerimeter=0;" edge="1" parent="1" source="rv_dXC7rwFdCXqUK-G93-37" target="rv_dXC7rwFdCXqUK-G93-1">
          <mxGeometry width="160" relative="1" as="geometry">
            <mxPoint x="330" y="260" as="sourcePoint" />
            <mxPoint x="490" y="260" as="targetPoint" />
          </mxGeometry>
        </mxCell>
        <mxCell id="rv_dXC7rwFdCXqUK-G93-39" value="" style="endArrow=diamondThin;endFill=0;endSize=24;html=1;rounded=0;entryX=0.5;entryY=0;entryDx=0;entryDy=0;" edge="1" parent="1" source="rv_dXC7rwFdCXqUK-G93-1" target="rv_dXC7rwFdCXqUK-G93-7">
          <mxGeometry width="160" relative="1" as="geometry">
            <mxPoint x="358" y="527" as="sourcePoint" />
            <mxPoint x="736" y="660" as="targetPoint" />
          </mxGeometry>
        </mxCell>
        <mxCell id="rv_dXC7rwFdCXqUK-G93-40" value="" style="endArrow=block;dashed=1;endFill=0;endSize=12;html=1;rounded=0;" edge="1" parent="1" source="rv_dXC7rwFdCXqUK-G93-16" target="rv_dXC7rwFdCXqUK-G93-1">
          <mxGeometry width="160" relative="1" as="geometry">
            <mxPoint x="330" y="460" as="sourcePoint" />
            <mxPoint x="490" y="460" as="targetPoint" />
          </mxGeometry>
        </mxCell>
        <mxCell id="rv_dXC7rwFdCXqUK-G93-41" value="queryFlightDetails()" style="text;whiteSpace=wrap;html=1;" vertex="1" parent="1">
          <mxGeometry x="450" y="390" width="120" height="30" as="geometry" />
        </mxCell>
        <mxCell id="rv_dXC7rwFdCXqUK-G93-42" value="ConfigurationManager" style="swimlane;fontStyle=1;align=center;verticalAlign=top;childLayout=stackLayout;horizontal=1;startSize=26;horizontalStack=0;resizeParent=1;resizeParentMax=0;resizeLast=0;collapsible=1;marginBottom=0;whiteSpace=wrap;html=1;fillColor=#d5e8d4;strokeColor=#82b366;" vertex="1" parent="1">
          <mxGeometry x="20" y="170" width="200" height="120" as="geometry" />
        </mxCell>
        <mxCell id="rv_dXC7rwFdCXqUK-G93-43" value="- rankData: List&amp;lt;String&amp;gt;&lt;div&gt;-&amp;nbsp;addonData: List&amp;lt;String&amp;gt;&lt;/div&gt;" style="text;strokeColor=none;fillColor=none;align=left;verticalAlign=top;spacingLeft=4;spacingRight=4;overflow=hidden;rotatable=0;points=[[0,0.5],[1,0.5]];portConstraint=eastwest;whiteSpace=wrap;html=1;" vertex="1" parent="rv_dXC7rwFdCXqUK-G93-42">
          <mxGeometry y="26" width="200" height="44" as="geometry" />
        </mxCell>
        <mxCell id="rv_dXC7rwFdCXqUK-G93-44" value="" style="line;strokeWidth=1;fillColor=none;align=left;verticalAlign=middle;spacingTop=-1;spacingLeft=3;spacingRight=3;rotatable=0;labelPosition=right;points=[];portConstraint=eastwest;strokeColor=inherit;" vertex="1" parent="rv_dXC7rwFdCXqUK-G93-42">
          <mxGeometry y="70" width="200" height="8" as="geometry" />
        </mxCell>
        <mxCell id="rv_dXC7rwFdCXqUK-G93-45" value="+ loadRanks()&lt;div&gt;+&amp;nbsp;&lt;span style=&quot;background-color: initial;&quot;&gt;loadAddons()&lt;/span&gt;&lt;/div&gt;" style="text;strokeColor=none;fillColor=none;align=left;verticalAlign=top;spacingLeft=4;spacingRight=4;overflow=hidden;rotatable=0;points=[[0,0.5],[1,0.5]];portConstraint=eastwest;whiteSpace=wrap;html=1;" vertex="1" parent="rv_dXC7rwFdCXqUK-G93-42">
          <mxGeometry y="78" width="200" height="42" as="geometry" />
        </mxCell>
        <mxCell id="rv_dXC7rwFdCXqUK-G93-46" value="" style="endArrow=block;dashed=1;endFill=0;endSize=12;html=1;rounded=0;entryX=0.25;entryY=0;entryDx=0;entryDy=0;" edge="1" parent="1" source="rv_dXC7rwFdCXqUK-G93-42" target="rv_dXC7rwFdCXqUK-G93-21">
          <mxGeometry width="160" relative="1" as="geometry">
            <mxPoint x="330" y="360" as="sourcePoint" />
            <mxPoint x="490" y="360" as="targetPoint" />
          </mxGeometry>
        </mxCell>
        <mxCell id="rv_dXC7rwFdCXqUK-G93-47" value="" style="endArrow=block;dashed=1;endFill=0;endSize=12;html=1;rounded=0;entryX=0.5;entryY=0;entryDx=0;entryDy=0;" edge="1" parent="1" source="rv_dXC7rwFdCXqUK-G93-42" target="rv_dXC7rwFdCXqUK-G93-11">
          <mxGeometry width="160" relative="1" as="geometry">
            <mxPoint x="330" y="360" as="sourcePoint" />
            <mxPoint x="490" y="360" as="targetPoint" />
          </mxGeometry>
        </mxCell>
      </root>
    </mxGraphModel>
  </diagram>
</mxfile>
